# xmcd
#
# Track frame offsets:
#	150
#	72975
#	151162
#	180875
#	236550
#
# Disc length: 4113 seconds
#
# Revision: 1
# Processed by: cddbd v1.5.1PL0 Copyright (c) Steve Scherf et al.
# Submitted via: CDex 1.50Beta5
#
DISCID=32100f05
DTITLE=フルトヴェングラー - ベートーヴェン交響曲第3番「英雄」
DYEAR=1952
DGENRE=Classical
TTITLE0=フルトヴェングラー/交響曲 第3番 変ホ長調 作品55「英雄」 第1楽章:アレグロ・コン・ブリオ
TTITLE1=フルトヴェングラー/交響曲 第3番 変ホ長調 作品55「英雄」 第2楽章:葬送行進曲（アダージョ・アッサイ）
TTITLE2=フルトヴェングラー/交響曲 第3番 変ホ長調 作品55「英雄」 第3楽章:スケルツォ（アレグロ・ヴィヴァーチェ）＆トリオ
TTITLE3=フルトヴェングラー/交響曲 第3番 変ホ長調 作品55「英雄」 第4章:フィナーレ（アレグロ・モルト）
TTITLE4=リスト/交響詩「前奏曲」S.97
EXTD=
EXTT0=
EXTT1=
EXTT2=
EXTT3=
EXTT4=
PLAYORDER=
